# xmcd
#
# Track frame offsets:
#	150
#	22475
#	34618
#	51674
#	65056
#	85764
#	97710
#	113587
#	125688
#	140717
#	157793
#	171095
#	185482
#
# Disc length: 2692 seconds
#
# Revision: 0
# Processed by: cddbd v1.5.2PL0 Copyright (c) Steve Scherf et al.
# Submitted via: EasyCDDAExtractor 10.2.0.1
#
DISCID=b20a820d
DTITLE=Various Artist - TCS Productions Vol. V
DYEAR=1999
DGENRE=Gospel
TTITLE0=Psalm 100 - My Heart Remembers When
TTITLE1=Gina White - What The Good Book Says
TTITLE2=Michael Courtney - Michael
TTITLE3=Tim Jones - Straighten Up And Fly Right
TTITLE4=Otha And Linda Geeslin - Why Not Tonight
TTITLE5=Jerri Sue Baken - Nothing My God Can't Do
TTITLE6=Drew Poppelreiter - Be A Miracle
TTITLE7=Ted Cook - Already Climbed That Hill For You
TTITLE8=Ken Iverson - I Believe
TTITLE9=Lynn Till - Don't Wait Too Late
TTITLE10=Brad Mount - I'm Calling
TTITLE11=Kevin LeDoux - Choupique Revival
TTITLE12=Marvin Morrow - My Jesus Can
EXTD=
EXTT0=
EXTT1=
EXTT2=
EXTT3=
EXTT4=
EXTT5=
EXTT6=
EXTT7=
EXTT8=
EXTT9=
EXTT10=
EXTT11=
EXTT12=
PLAYORDER=
